<svg width="432" height="432" viewBox="0 0 432 432" fill="none" xmlns="http://www.w3.org/2000/svg">
<path d="M216 422.747C310.027 422.747 386.251 379.445 386.251 326.031C386.251 272.616 310.027 229.314 216 229.314C121.973 229.314 45.7488 272.616 45.7488 326.031C45.7488 379.445 121.973 422.747 216 422.747Z" fill="#F5F5F5"/>
<path d="M286.848 387.011L159.762 313.632C158.644 312.988 157.716 312.061 157.07 310.943C156.425 309.826 156.085 308.559 156.085 307.269C156.085 305.978 156.425 304.711 157.07 303.594C157.716 302.477 158.644 301.549 159.762 300.905L172.299 293C174.463 291.753 176.917 291.097 179.414 291.097C181.911 291.097 184.365 291.753 186.529 293L313.632 366.388C314.75 367.032 315.679 367.959 316.324 369.076C316.97 370.193 317.31 371.461 317.31 372.751C317.31 374.041 316.97 375.309 316.324 376.426C315.679 377.543 314.75 378.47 313.632 379.115L301.095 387.011C298.93 388.264 296.473 388.924 293.972 388.924C291.47 388.924 289.013 388.264 286.848 387.011Z" fill="#E0E0E0"/>
<path d="M93.6144 320.112C108.846 320.112 121.193 313.021 121.193 304.275C121.193 295.528 108.846 288.438 93.6144 288.438C78.383 288.438 66.0355 295.528 66.0355 304.275C66.0355 313.021 78.383 320.112 93.6144 320.112Z" fill="#E6E6E6"/>
<path d="M331.914 323.741L344.01 330.696C344.01 330.696 337.833 311.282 341.124 291.712C342.369 284.317 345.038 280.645 345.971 278.666C346.905 276.687 354.136 264.462 347.699 258.863C341.263 253.264 326.29 264.522 327.102 294.65C327.471 304.511 329.088 314.286 331.914 323.741Z" fill="#563283" fill-opacity="0.6"/>
<path opacity="0.5" d="M331.914 323.741L344.01 330.696C344.01 330.696 337.833 311.282 341.124 291.712C342.369 284.317 345.038 280.645 345.971 278.666C346.905 276.687 354.136 264.462 347.699 258.863C341.263 253.264 326.29 264.522 327.102 294.65C327.471 304.511 329.088 314.286 331.914 323.741Z" fill="black"/>
<path d="M337.539 327.404C337.451 327.406 337.364 327.381 337.292 327.331C337.219 327.281 337.163 327.21 337.133 327.128C337.09 326.998 332.467 314.367 332.614 294.063C332.761 273.759 343.431 262.734 343.535 262.63C343.575 262.59 343.623 262.558 343.676 262.536C343.728 262.514 343.785 262.502 343.842 262.502C343.899 262.502 343.955 262.514 344.008 262.536C344.06 262.558 344.108 262.59 344.148 262.63C344.189 262.67 344.221 262.718 344.243 262.771C344.265 262.823 344.276 262.88 344.276 262.937C344.276 262.994 344.265 263.05 344.243 263.103C344.221 263.156 344.189 263.203 344.148 263.244C344.045 263.347 333.625 274.044 333.478 294.071C333.331 314.099 337.893 326.713 337.945 326.834C337.984 326.942 337.978 327.061 337.93 327.164C337.881 327.268 337.793 327.348 337.686 327.387C337.638 327.402 337.588 327.408 337.539 327.404Z" fill="white"/>
<path d="M336.96 326.713L353.497 336.217C355.22 337.235 357.264 337.567 359.22 337.146C361.177 336.725 362.904 335.582 364.055 333.945C365.15 332.241 365.611 330.208 365.36 328.199C364.565 319.611 360.832 317.632 365.403 313.805C369.973 309.977 371.166 309.709 370.907 306.029C370.647 302.348 368.133 300.741 366.941 299.29C365.748 297.838 362.448 294.797 364.694 290.304C366.941 285.811 370.008 281.465 365.36 279.478C362.586 278.286 357.964 279.875 354.923 283.176C351.881 286.476 349.376 288.852 346.464 289.647C343.552 290.442 337.487 290.572 337.746 295.592C338.005 300.611 339.336 302.331 338.144 304.569C335.897 308.75 326.125 311.126 336.96 326.713Z" fill="#563283" fill-opacity="0.6"/>
<path d="M345.133 331.828C345.026 331.825 344.923 331.783 344.844 331.71C344.764 331.637 344.714 331.538 344.701 331.431C344.701 331.137 342.161 301.484 362.552 281.751C362.636 281.681 362.743 281.646 362.852 281.653C362.961 281.659 363.063 281.706 363.138 281.785C363.214 281.864 363.257 281.968 363.259 282.077C363.26 282.186 363.221 282.292 363.148 282.373C343.051 301.821 345.539 331.059 345.565 331.353C345.575 331.466 345.54 331.579 345.467 331.666C345.394 331.753 345.29 331.808 345.177 331.819L345.133 331.828Z" fill="white"/>
<path d="M348.408 306.305C348.299 306.306 348.194 306.265 348.114 306.191C348.034 306.117 347.985 306.016 347.976 305.908C347.795 303.61 347.148 301.373 346.074 299.333C345 297.294 343.522 295.494 341.729 294.045C341.683 294.012 341.643 293.971 341.612 293.922C341.582 293.874 341.561 293.821 341.551 293.764C341.542 293.708 341.543 293.65 341.556 293.595C341.569 293.539 341.592 293.487 341.626 293.44C341.658 293.394 341.698 293.354 341.746 293.324C341.793 293.293 341.846 293.273 341.902 293.263C341.957 293.253 342.014 293.255 342.069 293.268C342.124 293.28 342.176 293.304 342.222 293.337C344.132 294.851 345.706 296.746 346.846 298.901C347.985 301.056 348.664 303.425 348.84 305.856C348.85 305.972 348.813 306.086 348.739 306.175C348.664 306.264 348.558 306.32 348.443 306.331L348.408 306.305Z" fill="white"/>
<path d="M347 311.394C346.895 311.396 346.794 311.359 346.715 311.291C346.629 311.214 346.576 311.107 346.568 310.993C346.56 310.878 346.597 310.765 346.671 310.677C346.879 310.435 351.985 304.802 363.951 306.297C364.065 306.312 364.167 306.371 364.237 306.462C364.307 306.553 364.338 306.667 364.323 306.781C364.308 306.895 364.249 306.998 364.158 307.069C364.068 307.14 363.953 307.173 363.839 307.161C352.348 305.718 347.363 311.196 347.311 311.248C347.271 311.292 347.224 311.327 347.17 311.353C347.117 311.378 347.059 311.392 347 311.394Z" fill="white"/>
<path d="M282.977 378.242L171.21 313.71C163.322 309.157 156.928 296.94 156.928 286.425V47.0969C156.928 36.582 163.322 31.7522 171.21 36.3055L282.977 100.838C290.866 105.391 297.259 117.608 297.259 128.123V367.451C297.259 377.957 290.866 382.795 282.977 378.242Z" fill="#455A64"/>
<path d="M295.851 93.3121L184.075 28.7799C180.706 26.8359 177.613 26.6113 175.167 27.8036C174.868 27.9535 174.579 28.1238 174.303 28.3134L161.775 35.5969C164.298 34.0849 167.599 34.1972 171.219 36.2881L282.986 100.82C290.874 105.374 297.268 117.59 297.268 128.105V367.433C297.268 372.998 295.479 376.937 292.628 378.804L304.992 371.607C308.146 369.93 310.176 365.826 310.176 359.943V120.614C310.176 110.082 303.739 97.8654 295.851 93.3121Z" fill="#37474F"/>
<path d="M297.259 128.105V367.433C297.259 372.997 295.471 376.937 292.62 378.803L304.992 371.606C308.146 369.93 310.176 365.826 310.176 359.942V120.614L297.302 128.088L297.259 128.105Z" fill="#263238"/>
<path d="M310.133 139.182L297.259 146.612V152.418L310.133 144.979V139.182Z" fill="#37474F"/>
<path d="M304.491 177.794C303.342 178.459 302.409 177.751 302.409 176.221V163.737C302.42 162.956 302.615 162.189 302.976 161.498C303.338 160.806 303.857 160.209 304.491 159.754C305.64 159.088 306.573 159.754 306.573 161.326V173.811C306.561 174.591 306.367 175.358 306.005 176.05C305.644 176.742 305.125 177.339 304.491 177.794Z" fill="#37474F"/>
<path d="M302.4 176.256V163.737C302.412 162.956 302.606 162.189 302.968 161.498C303.329 160.806 303.848 160.209 304.482 159.754C304.672 159.621 304.893 159.54 305.123 159.519C305.353 159.498 305.585 159.537 305.796 159.633L304.232 158.829C304.018 158.726 303.781 158.682 303.544 158.7C303.307 158.718 303.08 158.798 302.884 158.933C302.249 159.388 301.729 159.985 301.366 160.677C301.003 161.368 300.807 162.135 300.793 162.916V175.392C300.761 175.707 300.809 176.025 300.932 176.317C301.056 176.609 301.252 176.864 301.502 177.06L303.134 177.924C302.875 177.736 302.669 177.483 302.54 177.19C302.411 176.897 302.363 176.574 302.4 176.256Z" fill="#455A64"/>
<path d="M304.491 208.008C303.342 208.673 302.409 208.008 302.409 206.436V193.951C302.421 193.171 302.616 192.404 302.977 191.712C303.339 191.021 303.857 190.423 304.491 189.968C305.64 189.303 306.573 189.968 306.573 191.549V204.025C306.563 204.806 306.369 205.573 306.007 206.265C305.646 206.957 305.126 207.554 304.491 208.008Z" fill="#37474F"/>
<path d="M302.4 206.436V193.951C302.412 193.171 302.607 192.404 302.969 191.712C303.33 191.021 303.849 190.423 304.482 189.968C304.673 189.838 304.893 189.758 305.123 189.737C305.353 189.716 305.584 189.754 305.796 189.847L304.232 189.035C304.019 188.927 303.781 188.88 303.543 188.898C303.306 188.917 303.078 189 302.884 189.138C302.248 189.592 301.727 190.189 301.364 190.881C301 191.573 300.805 192.34 300.793 193.121V205.632C300.76 205.947 300.807 206.266 300.931 206.558C301.055 206.849 301.251 207.105 301.501 207.3L303.134 208.164C302.864 207.972 302.652 207.709 302.522 207.404C302.393 207.099 302.35 206.763 302.4 206.436Z" fill="#455A64"/>
<path d="M279.072 107.551L169.24 44.1159C168.782 43.8522 168.263 43.7129 167.734 43.7119C167.205 43.7109 166.685 43.8483 166.226 44.1103C165.766 44.3723 165.383 44.7498 165.115 45.2055C164.847 45.6611 164.702 46.1791 164.696 46.7079V286.425C164.696 294.425 170.372 304.249 177.301 308.249L284.437 370.138C284.946 370.43 285.522 370.584 286.108 370.583C286.694 370.583 287.27 370.428 287.777 370.135C288.285 369.842 288.707 369.42 289 368.913C289.293 368.405 289.448 367.829 289.449 367.243V125.548C289.492 118.947 284.809 110.851 279.072 107.551Z" fill="#563283" fill-opacity="0.6"/>
<path opacity="0.9" d="M279.072 107.551L169.24 44.1159C168.782 43.8522 168.263 43.7129 167.734 43.7119C167.205 43.7109 166.685 43.8483 166.226 44.1103C165.766 44.3723 165.383 44.7498 165.115 45.2055C164.847 45.6611 164.702 46.1791 164.696 46.7079V286.425C164.696 294.425 170.372 304.249 177.301 308.249L284.437 370.138C284.946 370.43 285.522 370.584 286.108 370.583C286.694 370.583 287.27 370.428 287.777 370.135C288.285 369.842 288.707 369.42 289 368.913C289.293 368.405 289.448 367.829 289.449 367.243V125.548C289.492 118.947 284.809 110.851 279.072 107.551Z" fill="white"/>
<path d="M202.09 60.6787L203.792 67.8413L240.201 88.8365L246.491 85.4841L202.09 60.6787Z" fill="#455A64"/>
<path d="M212.795 67.5993C212.795 68.7916 211.931 69.2668 210.928 68.6793C210.39 68.322 209.944 67.8436 209.624 67.2824C209.304 66.7212 209.121 66.0929 209.088 65.4479C209.088 64.2642 209.952 63.7804 210.954 64.3765C211.492 64.7319 211.939 65.2087 212.259 65.7685C212.578 66.3283 212.762 66.9554 212.795 67.5993Z" fill="#263238"/>
<path d="M237.324 82.7627C237.124 82.7611 236.929 82.7107 236.753 82.6159L218.16 72.2479C217.898 72.0937 217.706 71.843 217.626 71.5493C217.545 71.2556 217.583 70.9422 217.731 70.676C217.879 70.4098 218.125 70.2119 218.416 70.1247C218.708 70.0374 219.022 70.0676 219.292 70.2088L237.894 80.5768C238.12 80.7025 238.298 80.8998 238.4 81.1376C238.501 81.3755 238.521 81.6404 238.456 81.8908C238.391 82.1411 238.244 82.3626 238.039 82.5205C237.834 82.6783 237.582 82.7635 237.324 82.7627Z" fill="#263238"/>
<path d="M187.73 94.0033C186.598 93.3466 185.777 93.9169 185.777 95.3598C185.777 96.0813 185.956 96.7917 186.296 97.4278C186.637 98.0638 187.129 98.6059 187.73 99.0058C188.052 99.2011 188.421 99.3044 188.797 99.3044C189.173 99.3044 189.542 99.2011 189.864 99.0058L191.67 102.272C191.035 102.622 190.314 102.789 189.59 102.754C188.865 102.719 188.164 102.483 187.566 102.073C186.099 101.175 184.876 99.9302 184.005 98.4473C183.134 96.9644 182.641 95.2897 182.572 93.5713C182.572 90.3658 184.723 89.2513 187.687 90.9793C189.36 92.057 190.731 93.5439 191.67 95.2993L189.864 96.7335C189.419 95.6437 188.68 94.6986 187.73 94.0033Z" fill="#563283" fill-opacity="0.6"/>
<path d="M202.064 104.829C202.064 108.061 199.878 109.149 196.88 107.421C195.371 106.52 194.108 105.259 193.204 103.752C192.299 102.244 191.781 100.537 191.696 98.7812C191.696 95.5499 193.882 94.4612 196.88 96.1892C198.392 97.0869 199.658 98.3464 200.563 99.8546C201.468 101.363 201.983 103.072 202.064 104.829ZM194.901 100.708C194.916 101.45 195.107 102.177 195.459 102.831C195.81 103.484 196.312 104.045 196.923 104.466C197.994 105.088 198.858 104.466 198.858 102.998C198.855 102.272 198.678 101.559 198.341 100.917C198.004 100.274 197.518 99.7228 196.923 99.3083C195.834 98.6776 194.901 99.2132 194.901 100.708Z" fill="#563283" fill-opacity="0.6"/>
<path d="M205.546 101.399L209.278 109.175V103.577L212.103 105.21V116.105L209.511 114.601L205.796 106.894V112.459L202.954 110.817V99.896L205.546 101.399Z" fill="#563283" fill-opacity="0.6"/>
<path d="M221.34 110.514V113.365L218.644 111.81V119.863L215.525 118.057V110.004L212.846 108.458V105.615L221.34 110.514Z" fill="#563283" fill-opacity="0.6"/>
<path d="M227.422 123.388L223.88 121.34L223.396 122.602L220.199 120.753L224.182 112.156L227.388 114.005L231.224 127.12L227.897 125.202L227.422 123.388ZM226.653 120.364L225.685 116.64L224.692 119.232L226.653 120.364Z" fill="#563283" fill-opacity="0.6"/>
<path d="M236.174 121.971C235.043 121.323 234.222 121.885 234.222 123.336C234.223 124.057 234.402 124.767 234.743 125.403C235.083 126.039 235.575 126.581 236.174 126.982C236.498 127.176 236.869 127.278 237.246 127.278C237.623 127.278 237.993 127.176 238.317 126.982L240.123 130.248C239.485 130.595 238.764 130.759 238.039 130.724C237.314 130.689 236.612 130.456 236.01 130.049C234.542 129.151 233.318 127.904 232.447 126.42C231.576 124.935 231.085 123.259 231.016 121.539C231.016 118.334 233.176 117.219 236.131 118.947C237.803 120.03 239.175 121.515 240.123 123.267L238.317 124.693C237.862 123.609 237.121 122.668 236.174 121.971Z" fill="#563283" fill-opacity="0.6"/>
<path d="M248.642 126.282V129.125L245.946 127.57V135.648L242.827 133.842V125.79L240.149 124.243V121.401L248.642 126.282Z" fill="#563283" fill-opacity="0.6"/>
<path d="M257.861 139.657C258.63 140.098 259.217 139.752 259.217 138.672V132.391L262.345 134.188V140.469C262.345 143.364 260.617 144.228 257.852 142.647C256.52 141.907 255.4 140.838 254.6 139.541C253.8 138.245 253.346 136.764 253.282 135.242V128.961L256.409 130.767V137.048C256.421 137.568 256.56 138.077 256.813 138.532C257.066 138.987 257.425 139.373 257.861 139.657Z" fill="#563283" fill-opacity="0.6"/>
<path d="M267.382 139.692C267.028 139.493 266.803 139.484 266.803 139.813C266.803 141.178 271.685 143.148 271.685 147.096C271.685 149.515 269.845 149.524 267.719 148.297C265.851 147.152 264.241 145.631 262.993 143.83L264.151 141.791C265.101 143.262 266.32 144.54 267.745 145.558C268.203 145.826 268.497 145.826 268.497 145.437C268.497 144.02 263.606 142.137 263.606 138.309C263.606 136.132 265.196 135.717 267.65 137.1C269.231 138.056 270.622 139.295 271.754 140.755L270.622 142.845C269.687 141.655 268.598 140.594 267.382 139.692Z" fill="#563283" fill-opacity="0.6"/>
<path d="M172.014 147.692C175.519 143.386 177.284 137.923 176.96 132.38C176.635 126.838 174.245 121.618 170.261 117.751C166.277 113.883 160.988 111.65 155.438 111.491C149.888 111.331 144.48 113.258 140.28 116.89C136.081 120.523 133.396 125.597 132.754 131.112C132.112 136.627 133.561 142.182 136.814 146.682C140.067 151.181 144.888 154.298 150.326 155.418C155.764 156.537 161.425 155.578 166.19 152.729L177.008 157.429L172.014 147.692Z" fill="#563283" fill-opacity="0.6"/>
<path opacity="0.4" d="M172.014 147.692C175.519 143.386 177.284 137.923 176.96 132.38C176.635 126.838 174.245 121.618 170.261 117.751C166.277 113.883 160.988 111.65 155.438 111.491C149.888 111.331 144.48 113.258 140.28 116.89C136.081 120.523 133.396 125.597 132.754 131.112C132.112 136.627 133.561 142.182 136.814 146.682C140.067 151.181 144.888 154.298 150.326 155.418C155.764 156.537 161.425 155.578 166.19 152.729L177.008 157.429L172.014 147.692Z" fill="black"/>
<path d="M146.578 132.485C146.578 132.148 146.336 131.958 145.895 131.958C144.873 132.092 143.918 132.542 143.165 133.246L141.938 130.861C143.229 129.889 144.789 129.34 146.405 129.289C148.478 129.289 150.051 130.377 150.051 132.002C150.051 133.159 149.187 134.274 148.081 135.388L146.534 136.918H150.189V139.458H142.335V137.376L145.835 133.755C146.211 133.422 146.472 132.977 146.578 132.485Z" fill="white"/>
<path d="M156.583 129.436L154.198 135.155H155.174V133.229H158.181V135.155H159.322V137.514H158.181V139.458H155.174V137.514H150.898V135.371L153.49 129.436H156.583Z" fill="white"/>
<path d="M168.601 134.473V139.458H165.387V135.397C165.405 135.265 165.395 135.13 165.357 135.002C165.319 134.874 165.254 134.756 165.167 134.655C165.079 134.554 164.971 134.474 164.849 134.418C164.728 134.363 164.596 134.334 164.462 134.334C163.832 134.334 163.434 134.827 163.434 135.587V139.458H160.22V128.865H163.434V132.762C163.686 132.364 164.036 132.039 164.451 131.818C164.866 131.597 165.331 131.487 165.802 131.5C166.187 131.491 166.57 131.562 166.926 131.71C167.281 131.858 167.602 132.08 167.866 132.361C168.13 132.641 168.332 132.974 168.459 133.338C168.585 133.702 168.634 134.089 168.601 134.473Z" fill="white"/>
<path d="M273.404 214.756V322.108C273.406 323.322 273.088 324.515 272.482 325.568C271.876 326.62 271.004 327.494 269.953 328.102C268.902 328.71 267.709 329.03 266.495 329.03C265.281 329.031 264.088 328.711 263.036 328.104L205.217 294.719L194.97 288.809C191.442 286.769 188.511 283.839 186.47 280.31C184.429 276.782 183.35 272.78 183.341 268.704V161.344C183.339 160.129 183.657 158.936 184.263 157.884C184.869 156.832 185.741 155.958 186.792 155.35C187.843 154.742 189.036 154.422 190.25 154.421C191.464 154.421 192.657 154.74 193.709 155.347L261.792 194.651C265.322 196.688 268.254 199.618 270.292 203.148C272.33 206.677 273.404 210.68 273.404 214.756Z" fill="#563283" fill-opacity="0.6"/>
<path opacity="0.5" d="M273.404 214.756V322.108C273.406 323.322 273.088 324.515 272.482 325.568C271.876 326.62 271.004 327.494 269.953 328.102C268.902 328.71 267.709 329.03 266.495 329.03C265.281 329.031 264.088 328.711 263.036 328.104L205.217 294.719L194.97 288.809C191.442 286.769 188.511 283.839 186.47 280.31C184.429 276.782 183.35 272.78 183.341 268.704V161.344C183.339 160.129 183.657 158.936 184.263 157.884C184.869 156.832 185.741 155.958 186.792 155.35C187.843 154.742 189.036 154.422 190.25 154.421C191.464 154.421 192.657 154.74 193.709 155.347L261.792 194.651C265.322 196.688 268.254 199.618 270.292 203.148C272.33 206.677 273.404 210.68 273.404 214.756Z" fill="white"/>
<path d="M240.097 278.277C240.097 278.277 250.923 296.231 243.104 316.475L205.191 294.719L240.097 278.277Z" fill="#263238"/>
<path d="M257.362 197.612C258.181 190.958 253.451 184.899 246.797 184.08C240.143 183.261 234.085 187.991 233.265 194.645C232.446 201.299 237.176 207.357 243.83 208.176C250.484 208.996 256.542 204.266 257.362 197.612Z" fill="#263238"/>
<path d="M245.376 162.078C245.376 162.078 249.1 156.03 250.24 156.47C251.381 156.911 249.497 162.674 249.497 162.674C249.497 162.674 255.131 163.849 254.085 165.266C253.04 166.683 246.154 166.346 246.154 166.346L245.376 162.078Z" fill="#263238"/>
<path d="M247.968 177.664C245.376 197.139 228.96 197.139 228.96 197.139L194.573 182.002C194.573 182.002 191.981 179.729 191.186 174.511C190.881 172.373 190.881 170.203 191.186 168.065C191.186 168.065 191.186 168.022 191.186 168.005C192.283 159.814 198.409 151.01 211.749 148.306C214.672 147.715 217.649 147.426 220.631 147.442C222.074 147.436 223.516 147.509 224.951 147.658C235.319 148.677 242.585 153.515 246.05 161.041C246.829 162.739 247.409 164.522 247.778 166.354C248.481 170.086 248.545 173.911 247.968 177.664Z" fill="#263238"/>
<path d="M165.413 215.335C165.413 215.335 153.204 214.912 148.504 226.809C148.504 226.809 153.688 230.308 160.488 226.809C167.288 223.31 165.413 215.335 165.413 215.335Z" fill="#563283" fill-opacity="0.6"/>
<path opacity="0.5" d="M165.413 215.335C165.413 215.335 153.204 214.912 148.504 226.809C148.504 226.809 153.688 230.308 160.488 226.809C167.288 223.31 165.413 215.335 165.413 215.335Z" fill="black"/>
<path d="M165.067 221.063C165.067 221.063 161.611 206.047 159.788 205.865C157.965 205.684 157.611 210.445 157.758 213.132L153.438 203.835C153.301 203.546 153.106 203.288 152.865 203.078C152.625 202.867 152.344 202.708 152.04 202.61C151.735 202.512 151.414 202.477 151.096 202.508C150.777 202.539 150.469 202.635 150.189 202.79C145.869 205.166 138.292 212.389 154.267 230.247L165.067 221.063Z" fill="#945959"/>
<path d="M209.304 210.678L206.712 210.341C204.1 209.994 201.442 210.35 199.013 211.37C196.584 212.39 194.469 214.039 192.888 216.147L177.466 236.675L165.37 215.335C165.37 215.335 163.918 229.85 148.461 226.809L165.059 254.742C166.109 256.51 167.571 257.999 169.32 259.08C171.069 260.162 173.054 260.806 175.105 260.956C177.157 261.106 179.214 260.759 181.102 259.943C182.99 259.127 184.653 257.867 185.95 256.271L200.154 238.81L209.304 210.678Z" fill="#563283" fill-opacity="0.6"/>
<path d="M242.222 258.586C238.766 267.347 238.386 269.058 240.494 273.439C241.963 276.674 243.12 280.041 243.95 283.496C243.95 283.496 227.932 301.449 205.131 294.728L194.884 288.818C192.753 287.589 190.833 286.025 189.199 284.187L192.318 260.928C192.475 259.704 192.351 258.46 191.955 257.29L188.68 247.691C187.082 243.003 186.845 237.958 187.994 233.14C189.144 228.322 191.635 223.928 195.178 220.467L206.185 209.71L235.094 213.408L239.414 214.643C242.243 215.461 244.681 217.272 246.28 219.744C247.88 222.215 248.535 225.181 248.123 228.096C246.707 238.291 244.391 253.083 242.222 258.586Z" fill="#563283" fill-opacity="0.6"/>
<path opacity="0.5" d="M242.222 258.586C238.766 267.347 238.386 269.058 240.494 273.439C241.963 276.674 243.12 280.041 243.95 283.496C243.95 283.496 227.932 301.449 205.131 294.728L194.884 288.818C192.753 287.589 190.833 286.025 189.199 284.187L192.318 260.928C192.475 259.704 192.351 258.46 191.955 257.29L188.68 247.691C187.082 243.003 186.845 237.958 187.994 233.14C189.144 228.322 191.635 223.928 195.178 220.467L206.185 209.71L235.094 213.408L239.414 214.643C242.243 215.461 244.681 217.272 246.28 219.744C247.88 222.215 248.535 225.181 248.123 228.096C246.707 238.291 244.391 253.083 242.222 258.586Z" fill="black"/>
<path d="M224.787 232.416L218.998 227.483C218.385 226.958 217.646 226.603 216.853 226.451C216.061 226.3 215.243 226.357 214.479 226.619L207.481 229.029L206.539 225.107C206.392 224.496 206.123 223.922 205.748 223.419C205.373 222.915 204.9 222.493 204.358 222.177C203.815 221.862 203.214 221.659 202.591 221.582C201.968 221.505 201.336 221.555 200.733 221.729L197.7 222.593L202.833 212.76C204.508 209.558 207.09 206.92 210.254 205.174L212.267 204.068L228.899 204.932C228.899 204.932 235.094 207.524 235.094 213.356L224.787 232.364" fill="#563283" fill-opacity="0.6"/>
<path d="M228.969 212.302L212.293 225.297V183.92H228.969V212.302Z" fill="#945959"/>
<path d="M212.553 208.889L207.481 229.064L228.9 212.302L212.553 208.889Z" fill="#945959"/>
<path d="M212.293 205.891C216.001 204.515 219.391 202.399 222.256 199.672C225.121 196.945 227.402 193.664 228.96 190.028V183.92H212.285L212.293 205.891Z" fill="#703838"/>
<path d="M215.888 153.256C209.563 153.256 196.119 156.781 194.564 173.336C193.009 189.89 194.512 202.712 203.049 203.956C211.585 205.2 231.422 199.005 234.083 177.578C236.745 156.151 222.048 153.256 215.888 153.256Z" fill="#945959"/>
<path d="M205.934 180.343V190.097L200.215 188.343L205.934 180.343Z" fill="#703838"/>
<path d="M212.293 184.015C213.391 184.015 214.281 183.125 214.281 182.028C214.281 180.93 213.391 180.041 212.293 180.041C211.196 180.041 210.306 180.93 210.306 182.028C210.306 183.125 211.196 184.015 212.293 184.015Z" fill="#263238"/>
<path d="M201.2 180.645C201.198 181.038 201.08 181.421 200.861 181.747C200.641 182.073 200.33 182.326 199.967 182.475C199.604 182.624 199.204 182.662 198.82 182.585C198.435 182.507 198.081 182.317 197.804 182.039C197.527 181.76 197.339 181.406 197.263 181.021C197.187 180.636 197.227 180.237 197.377 179.874C197.528 179.512 197.783 179.202 198.109 178.984C198.436 178.766 198.82 178.649 199.213 178.649C199.474 178.649 199.733 178.701 199.975 178.801C200.217 178.902 200.436 179.049 200.621 179.235C200.805 179.42 200.952 179.64 201.051 179.882C201.15 180.124 201.201 180.384 201.2 180.645Z" fill="#263238"/>
<path d="M196.785 176.498L200.673 174.191C200.673 174.191 199.187 172.645 197.7 173.569C196.214 174.494 196.785 176.498 196.785 176.498Z" fill="#263238"/>
<path d="M203.247 194.054C205.141 194.193 207.025 193.687 208.595 192.62C208.595 192.62 208.967 195.445 206.6 195.981C204.232 196.517 203.247 194.054 203.247 194.054Z" fill="#703838"/>
<path d="M199.852 158.89C199.852 158.89 202.228 181.742 233.306 182.46C233.306 182.46 242.698 159.745 224.139 152.366C205.58 144.988 199.852 158.89 199.852 158.89Z" fill="#263238"/>
<path d="M242.456 179.038L238.637 176.826C237.185 175.962 235.181 176.083 232.96 177.362C228.554 179.902 224.977 186.097 224.977 191.186C224.977 193.735 225.841 195.506 227.327 196.37L231.077 198.53L231.293 198.651L231.422 198.729C232.839 199.42 234.731 199.256 236.814 198.055C241.22 195.463 244.797 189.32 244.797 184.231C244.771 181.656 243.881 179.876 242.456 179.038Z" fill="#563283" fill-opacity="0.6"/>
<path d="M242.425 192.052C245.541 186.655 245.541 180.821 242.426 179.022C239.31 177.223 234.258 180.14 231.142 185.537C228.026 190.934 228.026 196.767 231.142 198.566C234.258 200.365 239.31 197.449 242.425 192.052Z" fill="#563283" fill-opacity="0.6"/>
<path opacity="0.5" d="M242.425 192.052C245.541 186.655 245.541 180.821 242.426 179.022C239.31 177.223 234.258 180.14 231.142 185.537C228.026 190.934 228.026 196.767 231.142 198.566C234.258 200.365 239.31 197.449 242.425 192.052Z" fill="black"/>
<path d="M243.985 183.834L241.393 182.322C240.408 181.734 239.034 181.812 237.514 182.684C235.925 183.723 234.603 185.12 233.655 186.763C232.706 188.407 232.157 190.25 232.053 192.145C232.053 193.873 232.667 195.109 233.66 195.679L236.252 197.156C236.298 197.19 236.347 197.219 236.399 197.243L236.485 197.295C237.093 197.525 237.748 197.603 238.392 197.522C239.037 197.44 239.652 197.202 240.183 196.828C241.771 195.791 243.092 194.395 244.04 192.753C244.989 191.111 245.538 189.269 245.644 187.376C245.575 185.622 244.97 184.404 243.985 183.834Z" fill="#563283" fill-opacity="0.6"/>
<path d="M245.575 187.359C245.469 189.252 244.92 191.094 243.971 192.736C243.023 194.378 241.702 195.773 240.114 196.811C237.09 198.539 234.645 197.139 234.645 193.657C234.748 191.762 235.296 189.918 236.247 188.276C237.197 186.633 238.522 185.238 240.114 184.205C243.13 182.46 245.575 183.868 245.575 187.359Z" fill="#563283" fill-opacity="0.6"/>
<path opacity="0.3" d="M245.575 187.359C245.469 189.252 244.92 191.094 243.971 192.736C243.023 194.378 241.702 195.773 240.114 196.811C237.09 198.539 234.645 197.139 234.645 193.657C234.748 191.762 235.296 189.918 236.247 188.276C237.197 186.633 238.522 185.238 240.114 184.205C243.13 182.46 245.575 183.868 245.575 187.359Z" fill="black"/>
<path d="M230.593 148.798C228.116 146.885 225.083 145.832 221.953 145.8H221.184C218.015 145.766 214.851 146.055 211.74 146.664C212.311 146.664 212.881 146.664 213.468 146.664H211.74V148.271H213.348C218.886 148.459 224.134 150.794 227.983 154.781C231.831 158.769 233.979 164.096 233.971 169.638V176.438C233.971 176.706 234.027 176.972 234.136 177.218C234.245 177.463 234.405 177.683 234.605 177.863C234.804 178.043 235.039 178.18 235.295 178.263C235.55 178.346 235.821 178.375 236.088 178.347H236.287L238.015 177.811C237.9 177.848 237.781 177.871 237.66 177.88C238.176 177.81 238.647 177.553 238.985 177.158C239.323 176.763 239.503 176.257 239.492 175.738V169.43C239.475 158.017 234.541 151.883 230.593 148.798Z" fill="#563283" fill-opacity="0.6"/>
<path d="M219.715 203.48C219.003 203.481 218.298 203.327 217.65 203.031L212.25 200.534C212.166 200.504 212.088 200.457 212.023 200.395C211.958 200.333 211.906 200.259 211.871 200.176C211.837 200.094 211.819 200.005 211.82 199.915C211.822 199.825 211.841 199.737 211.879 199.655C211.916 199.574 211.97 199.501 212.037 199.441C212.103 199.381 212.182 199.336 212.267 199.308C212.353 199.28 212.443 199.27 212.532 199.279C212.621 199.288 212.708 199.315 212.786 199.359L218.186 201.856C218.875 202.176 219.646 202.274 220.393 202.134C221.139 201.995 221.824 201.626 222.35 201.079L227.534 195.722C227.656 195.6 227.821 195.532 227.992 195.532C228.164 195.532 228.329 195.6 228.45 195.722C228.569 195.844 228.636 196.009 228.636 196.18C228.636 196.351 228.569 196.515 228.45 196.638L223.266 201.994C222.805 202.468 222.252 202.844 221.642 203.099C221.032 203.355 220.377 203.484 219.715 203.48Z" fill="#563283" fill-opacity="0.6"/>
<path opacity="0.5" d="M219.715 203.48C219.003 203.481 218.298 203.327 217.65 203.031L212.25 200.534C212.166 200.504 212.088 200.457 212.023 200.395C211.958 200.333 211.906 200.259 211.871 200.176C211.837 200.094 211.819 200.005 211.82 199.915C211.822 199.825 211.841 199.737 211.879 199.655C211.916 199.574 211.97 199.501 212.037 199.441C212.103 199.381 212.182 199.336 212.267 199.308C212.353 199.28 212.443 199.27 212.532 199.279C212.621 199.288 212.708 199.315 212.786 199.359L218.186 201.856C218.875 202.176 219.646 202.274 220.393 202.134C221.139 201.995 221.824 201.626 222.35 201.079L227.534 195.722C227.656 195.6 227.821 195.532 227.992 195.532C228.164 195.532 228.329 195.6 228.45 195.722C228.569 195.844 228.636 196.009 228.636 196.18C228.636 196.351 228.569 196.515 228.45 196.638L223.266 201.994C222.805 202.468 222.252 202.844 221.642 203.099C221.032 203.355 220.377 203.484 219.715 203.48Z" fill="black"/>
<path d="M213.667 198.72C213.667 199.219 213.519 199.707 213.242 200.122C212.965 200.537 212.571 200.86 212.11 201.051C211.649 201.242 211.142 201.292 210.652 201.195C210.163 201.097 209.713 200.857 209.36 200.504C209.008 200.151 208.767 199.702 208.67 199.212C208.573 198.723 208.623 198.216 208.813 197.755C209.004 197.294 209.328 196.9 209.743 196.622C210.158 196.345 210.645 196.197 211.144 196.197C211.813 196.197 212.455 196.463 212.928 196.936C213.401 197.409 213.667 198.051 213.667 198.72Z" fill="#563283" fill-opacity="0.6"/>
<path opacity="0.5" d="M213.667 198.72C213.667 199.219 213.519 199.707 213.242 200.122C212.965 200.537 212.571 200.86 212.11 201.051C211.649 201.242 211.142 201.292 210.652 201.195C210.163 201.097 209.713 200.857 209.36 200.504C209.008 200.151 208.767 199.702 208.67 199.212C208.573 198.723 208.623 198.216 208.813 197.755C209.004 197.294 209.328 196.9 209.743 196.622C210.158 196.345 210.645 196.197 211.144 196.197C211.813 196.197 212.455 196.463 212.928 196.936C213.401 197.409 213.667 198.051 213.667 198.72Z" fill="black"/>
<path d="M239.475 169.431V175.738C239.486 176.258 239.305 176.763 238.968 177.158C238.63 177.554 238.158 177.811 237.643 177.881C237.359 177.911 237.071 177.881 236.799 177.793C236.526 177.704 236.276 177.56 236.063 177.368C235.85 177.177 235.68 176.943 235.564 176.681C235.448 176.419 235.388 176.136 235.388 175.85V169.431C235.393 166.367 234.778 163.334 233.58 160.514C232.382 157.694 230.626 155.145 228.418 153.022C226.21 150.898 223.594 149.243 220.73 148.157C217.865 147.07 214.81 146.574 211.749 146.699C214.859 146.09 218.024 145.801 221.193 145.835H221.944C225.074 145.867 228.107 146.92 230.584 148.833C234.541 151.883 239.475 158.017 239.475 169.431Z" fill="#563283" fill-opacity="0.6"/>
<path opacity="0.5" d="M239.475 169.431V175.738C239.486 176.258 239.305 176.763 238.968 177.158C238.63 177.554 238.158 177.811 237.643 177.881C237.359 177.911 237.071 177.881 236.799 177.793C236.526 177.704 236.276 177.56 236.063 177.368C235.85 177.177 235.68 176.943 235.564 176.681C235.448 176.419 235.388 176.136 235.388 175.85V169.431C235.393 166.367 234.778 163.334 233.58 160.514C232.382 157.694 230.626 155.145 228.418 153.022C226.21 150.898 223.594 149.243 220.73 148.157C217.865 147.07 214.81 146.574 211.749 146.699C214.859 146.09 218.024 145.801 221.193 145.835H221.944C225.074 145.867 228.107 146.92 230.584 148.833C234.541 151.883 239.475 158.017 239.475 169.431Z" fill="black"/>
<path d="M229.764 288.291C229.764 288.291 225.582 299.808 240.529 304.992C240.529 304.992 245.411 297.821 240.529 291.954C235.647 286.088 229.764 288.291 229.764 288.291Z" fill="#563283" fill-opacity="0.6"/>
<path opacity="0.7" d="M229.764 288.291C229.764 288.291 225.582 299.808 240.529 304.992C240.529 304.992 245.411 297.821 240.529 291.954C235.647 286.088 229.764 288.291 229.764 288.291Z" fill="black"/>
<path d="M235.008 288.818C235.008 288.818 220.406 294.166 220.484 296.24C220.562 298.313 226.688 296.896 226.688 296.896L224.45 298.365C222.093 299.903 220.268 302.129 219.223 304.741C218.995 305.317 218.987 305.957 219.2 306.539C219.414 307.121 219.834 307.603 220.38 307.895L225.927 310.833C226.241 310.999 226.584 311.1 226.937 311.132C227.29 311.163 227.646 311.123 227.984 311.014C228.321 310.905 228.634 310.73 228.902 310.499C229.171 310.267 229.39 309.984 229.547 309.666C229.857 309.055 230.284 308.512 230.804 308.067C231.325 307.622 231.928 307.285 232.58 307.074C235.595 306.072 241.22 303.186 243.475 295.289L235.008 288.818Z" fill="#945959"/>
<path d="M239.389 214.626C239.389 214.626 231.613 218.946 235.742 232.062C239.872 245.177 247.622 265.525 247.622 265.525L229.764 288.291C231.672 288.521 233.51 289.151 235.158 290.14C236.806 291.128 238.227 292.453 239.328 294.028C240.383 295.63 241.042 297.459 241.251 299.365C241.46 301.272 241.212 303.2 240.529 304.992L262.699 276.48C264.749 273.845 266.111 270.741 266.66 267.448C267.209 264.155 266.929 260.777 265.844 257.619L256.34 229.867C255.178 226.477 253.248 223.402 250.7 220.883C248.152 218.363 245.055 216.467 241.652 215.344L239.389 214.626Z" fill="#563283" fill-opacity="0.6"/>
<path d="M108.13 137.151L73.7683 117.279C73.3729 117.005 72.9154 116.834 72.4372 116.781C71.959 116.728 71.4752 116.796 71.0295 116.977C70.9355 117.02 70.8459 117.072 70.7616 117.132L63.288 121.513H63.3399C62.3981 122.048 61.8019 123.293 61.8019 125.072V163.296C61.8019 166.527 63.7632 170.286 66.1911 171.685L100.552 191.557C100.988 191.873 101.507 192.053 102.045 192.076C102.582 192.099 103.115 191.964 103.576 191.687C103.553 191.696 103.532 191.711 103.516 191.73L110.938 187.41C111.905 186.892 112.519 185.63 112.519 183.824V145.541C112.519 142.309 110.592 138.551 108.13 137.151Z" fill="#563283" fill-opacity="0.6"/>
<path d="M111.292 140.771C110.597 139.293 109.501 138.039 108.13 137.151L73.7683 117.279C73.3729 117.005 72.9154 116.834 72.4372 116.781C71.959 116.728 71.4752 116.796 71.0295 116.977C70.9355 117.02 70.8459 117.072 70.7616 117.132L63.288 121.513C63.7452 121.279 64.2578 121.176 64.7698 121.214C65.2818 121.252 65.7735 121.43 66.1911 121.729L100.552 141.601C101.971 142.528 103.095 143.841 103.792 145.385L111.292 140.771Z" fill="#563283" fill-opacity="0.6"/>
<path d="M104.941 188.196C104.941 189.924 104.389 191.125 103.516 191.652L110.938 187.332C111.905 186.814 112.519 185.553 112.519 183.747V145.541C112.482 143.878 112.062 142.246 111.292 140.771L103.792 145.385C104.512 146.816 104.905 148.389 104.941 149.99V188.196Z" fill="#563283" fill-opacity="0.6"/>
<path opacity="0.3" d="M111.292 140.771C110.597 139.293 109.501 138.039 108.13 137.151L73.7683 117.279C73.3729 117.005 72.9154 116.834 72.4372 116.781C71.959 116.728 71.4752 116.796 71.0295 116.977C70.9355 117.02 70.8459 117.072 70.7616 117.132L63.288 121.513C63.7452 121.279 64.2578 121.176 64.7698 121.214C65.2818 121.252 65.7735 121.43 66.1911 121.729L100.552 141.601C101.971 142.528 103.095 143.841 103.792 145.385L111.292 140.771Z" fill="black"/>
<path opacity="0.6" d="M104.941 188.196C104.941 189.924 104.389 191.125 103.516 191.652L110.938 187.332C111.905 186.814 112.519 185.553 112.519 183.747V145.541C112.482 143.878 112.062 142.246 111.292 140.771L103.792 145.385C104.512 146.816 104.905 148.389 104.941 149.99V188.196Z" fill="black"/>
<path d="M94.8673 160.938C94.8673 165.888 92.906 167.573 89.9684 165.871C89.158 165.41 88.4494 164.789 87.8851 164.047C87.3209 163.304 86.9127 162.455 86.6852 161.551C85.8212 162.614 84.482 162.683 82.5984 161.594C79.5053 159.806 77.0688 155.546 77.0688 151.408C77.0688 147.269 79.4794 145.843 82.5984 147.641C84.1812 148.573 85.4596 149.945 86.2791 151.589V149.956L89.5364 151.84V160.791C89.4879 161.262 89.5693 161.737 89.7719 162.165C89.9745 162.593 90.2905 162.957 90.6855 163.219C91.7828 163.858 92.4567 162.778 92.4567 159.572C92.4567 153.965 88.8624 148.021 83.5488 144.954C78.2352 141.886 74.6497 144.02 74.6497 149.792C74.7193 152.854 75.5631 155.85 77.1026 158.498C78.6421 161.146 80.827 163.362 83.4538 164.938C84.8801 165.816 86.4997 166.333 88.1713 166.441L88.9402 169.422C86.9938 169.265 85.113 168.646 83.4538 167.616C76.5418 163.616 71.9713 155.563 71.9713 148.271C71.9713 140.979 76.585 138.335 83.5488 142.362C90.2794 146.241 94.8673 154.008 94.8673 160.938ZM86.3309 156.782C86.3477 155.686 86.0804 154.605 85.555 153.643C85.0296 152.682 84.264 151.873 83.3328 151.295C81.6048 150.284 80.3693 150.993 80.3693 153.343C80.3471 154.44 80.6082 155.525 81.1273 156.492C81.6464 157.459 82.406 158.276 83.3328 158.864C85.0608 159.84 86.3309 159.21 86.3309 156.782Z" fill="#563283" fill-opacity="0.6"/>
<g opacity="0.9">
<path d="M94.8673 160.938C94.8673 165.888 92.906 167.573 89.9684 165.871C89.158 165.41 88.4494 164.789 87.8851 164.047C87.3209 163.304 86.9127 162.455 86.6852 161.551C85.8212 162.614 84.482 162.683 82.5984 161.594C79.5053 159.806 77.0688 155.546 77.0688 151.408C77.0688 147.269 79.4794 145.843 82.5984 147.641C84.1812 148.573 85.4596 149.945 86.2791 151.589V149.956L89.5364 151.84V160.791C89.4879 161.262 89.5693 161.737 89.7719 162.165C89.9745 162.593 90.2905 162.957 90.6855 163.219C91.7828 163.858 92.4567 162.778 92.4567 159.572C92.4567 153.965 88.8624 148.021 83.5488 144.954C78.2352 141.886 74.6497 144.02 74.6497 149.792C74.7193 152.854 75.5631 155.85 77.1026 158.498C78.6421 161.146 80.827 163.362 83.4538 164.938C84.8801 165.816 86.4997 166.333 88.1713 166.441L88.9402 169.422C86.9938 169.265 85.113 168.646 83.4538 167.616C76.5418 163.616 71.9713 155.563 71.9713 148.271C71.9713 140.979 76.585 138.335 83.5488 142.362C90.2794 146.241 94.8673 154.008 94.8673 160.938ZM86.3309 156.782C86.3477 155.686 86.0804 154.605 85.555 153.643C85.0296 152.682 84.264 151.873 83.3328 151.295C81.6048 150.284 80.3693 150.993 80.3693 153.343C80.3471 154.44 80.6082 155.525 81.1273 156.492C81.6464 157.459 82.406 158.276 83.3328 158.864C85.0608 159.84 86.3309 159.21 86.3309 156.782Z" fill="white"/>
</g>
<path d="M108.13 205.217L73.7683 185.345C73.3735 185.07 72.9154 184.898 72.4366 184.847C71.9578 184.796 71.4738 184.866 71.0295 185.051C70.9355 185.095 70.8459 185.147 70.7616 185.207L63.288 189.587H63.3399C62.3981 190.123 61.8019 191.367 61.8019 193.139V231.345C61.8019 234.585 63.7632 238.334 66.1911 239.734L100.552 259.606C100.987 259.924 101.507 260.105 102.045 260.128C102.583 260.151 103.116 260.015 103.576 259.736L103.516 259.787L110.938 255.424C111.905 254.915 112.519 253.696 112.519 251.839V213.598C112.519 210.367 110.592 206.617 108.13 205.217Z" fill="#563283" fill-opacity="0.6"/>
<path d="M111.292 208.837C110.599 207.357 109.503 206.103 108.13 205.217L73.7683 185.345C73.3735 185.07 72.9154 184.898 72.4366 184.847C71.9578 184.796 71.4738 184.866 71.0295 185.051C70.9355 185.095 70.8459 185.147 70.7616 185.207L63.288 189.587C63.7442 189.352 64.2565 189.246 64.7687 189.283C65.2809 189.319 65.7731 189.497 66.1911 189.795L100.552 209.667C101.973 210.595 103.097 211.912 103.792 213.46L111.292 208.837Z" fill="#563283" fill-opacity="0.6"/>
<path d="M104.941 256.254C104.941 257.982 104.389 259.183 103.516 259.753L110.938 255.39C111.905 254.88 112.519 253.662 112.519 251.804V213.598C112.482 211.938 112.062 210.309 111.292 208.837L103.792 213.451C104.512 214.879 104.905 216.449 104.941 218.048V256.254Z" fill="#563283" fill-opacity="0.6"/>
<path opacity="0.3" d="M111.292 208.837C110.599 207.357 109.503 206.103 108.13 205.217L73.7683 185.345C73.3735 185.07 72.9154 184.898 72.4366 184.847C71.9578 184.796 71.4738 184.866 71.0295 185.051C70.9355 185.095 70.8459 185.147 70.7616 185.207L63.288 189.587C63.7442 189.352 64.2565 189.246 64.7687 189.283C65.2809 189.319 65.7731 189.497 66.1911 189.795L100.552 209.667C101.973 210.595 103.097 211.912 103.792 213.46L111.292 208.837Z" fill="black"/>
<path opacity="0.6" d="M104.941 256.254C104.941 257.982 104.389 259.183 103.516 259.753L110.938 255.39C111.905 254.88 112.519 253.662 112.519 251.804V213.598C112.482 211.938 112.062 210.309 111.292 208.837L103.792 213.451C104.512 214.879 104.905 216.449 104.941 218.048V256.254Z" fill="black"/>
<path d="M79.5312 222.299L71.2455 208.837V227.076L79.5312 222.299Z" fill="#563283" fill-opacity="0.6"/>
<path d="M87.2295 226.178L95.498 240.494V222.281L87.2295 226.178Z" fill="#563283" fill-opacity="0.6"/>
<path d="M72.4983 208.224L81.0087 222.048C81.0447 222.078 81.0767 222.113 81.1037 222.152C81.1112 222.186 81.1112 222.221 81.1037 222.255L83.6353 226.368L85.778 225.357C85.8113 225.321 85.8491 225.289 85.8903 225.262C85.9748 225.213 86.0693 225.183 86.1668 225.176L94.8068 221.124L72.4983 208.224Z" fill="#563283" fill-opacity="0.6"/>
<path d="M85.9766 226.765L83.6611 227.854C83.5719 227.896 83.4744 227.916 83.376 227.915C83.2568 227.916 83.1392 227.886 83.0347 227.829C82.9302 227.771 82.8424 227.688 82.7798 227.586L80.2483 223.474L71.9366 228.277L94.3056 241.186L85.9766 226.765Z" fill="#563283" fill-opacity="0.6"/>
<g opacity="0.9">
<path d="M79.5312 222.299L71.2455 208.837V227.076L79.5312 222.299Z" fill="white"/>
<path d="M87.2295 226.178L95.498 240.494V222.281L87.2295 226.178Z" fill="white"/>
<path d="M72.4983 208.224L81.0087 222.048C81.0447 222.078 81.0767 222.113 81.1037 222.152C81.1112 222.186 81.1112 222.221 81.1037 222.255L83.6353 226.368L85.778 225.357C85.8113 225.321 85.8491 225.289 85.8903 225.262C85.9748 225.213 86.0693 225.183 86.1668 225.176L94.8068 221.124L72.4983 208.224Z" fill="white"/>
<path d="M85.9767 226.765L83.6612 227.854C83.572 227.896 83.4745 227.916 83.3761 227.915C83.2568 227.916 83.1392 227.886 83.0348 227.829C82.9303 227.771 82.8425 227.688 82.7799 227.586L80.2484 223.474L71.9367 228.277L94.3057 241.186L85.9767 226.765Z" fill="white"/>
</g>
<path d="M108.13 69.1201L73.7683 49.2481C73.3735 48.9725 72.9154 48.8011 72.4366 48.7497C71.9578 48.6984 71.4738 48.7687 71.0295 48.9543C70.9355 48.9977 70.8459 49.0498 70.7616 49.1098L63.288 53.4903H63.3399C62.3981 54.0174 61.8019 55.2701 61.8019 57.0413V95.2474C61.8019 98.4788 63.7632 102.237 66.1911 103.637L100.552 123.509C100.987 123.826 101.507 124.008 102.045 124.031C102.583 124.054 103.116 123.918 103.576 123.638L103.516 123.682L110.938 119.362C111.905 118.852 112.519 117.634 112.519 115.776V77.4749C112.519 74.2436 110.592 70.4852 108.13 69.1201Z" fill="#563283" fill-opacity="0.6"/>
<path d="M111.292 72.7143C110.599 71.2319 109.503 69.9744 108.13 69.0855L73.7683 49.2481C73.3735 48.9725 72.9154 48.8011 72.4366 48.7497C71.9578 48.6984 71.4738 48.7687 71.0295 48.9543C70.9355 48.9977 70.8459 49.0498 70.7616 49.1098L63.288 53.4903C63.7442 53.2544 64.2565 53.149 64.7687 53.1856C65.2809 53.2222 65.7731 53.3994 66.1911 53.6977L100.552 73.5697C101.973 74.4982 103.097 75.8145 103.792 77.3626L111.292 72.7143Z" fill="#563283" fill-opacity="0.6"/>
<path d="M104.941 120.096C104.941 121.824 104.389 123.025 103.516 123.552L110.938 119.232C111.905 118.722 112.519 117.504 112.519 115.647V77.475C112.482 75.8148 112.062 74.1855 111.292 72.7144L103.792 77.3281C104.512 78.7558 104.905 80.3261 104.941 81.9246V120.096Z" fill="#563283" fill-opacity="0.6"/>
<path opacity="0.3" d="M111.292 72.7143C110.599 71.2319 109.503 69.9744 108.13 69.0855L73.7683 49.2481C73.3735 48.9725 72.9154 48.8011 72.4366 48.7497C71.9578 48.6984 71.4738 48.7687 71.0295 48.9543C70.9355 48.9977 70.8459 49.0498 70.7616 49.1098L63.288 53.4903C63.7442 53.2544 64.2565 53.149 64.7687 53.1856C65.2809 53.2222 65.7731 53.3994 66.1911 53.6977L100.552 73.5697C101.973 74.4982 103.097 75.8145 103.792 77.3626L111.292 72.7143Z" fill="black"/>
<path opacity="0.6" d="M104.941 120.096C104.941 121.824 104.389 123.025 103.516 123.552L110.938 119.232C111.905 118.722 112.519 117.504 112.519 115.647V77.475C112.482 75.8148 112.062 74.1855 111.292 72.7144L103.792 77.3281C104.512 78.7558 104.905 80.3261 104.941 81.9246V120.096Z" fill="black"/>
<path d="M93.7008 103.68C92.3789 101.503 91.0483 99.36 89.7264 97.1655C89.5167 96.7498 89.2236 96.3818 88.8654 96.0845C88.5071 95.7872 88.0914 95.5669 87.6442 95.4375C87.0048 95.3079 86.3655 95.161 85.7088 94.9709C85.475 94.8734 85.2783 94.7039 85.1472 94.4871C82.9841 90.7849 81.2644 86.841 80.0237 82.7367C79.9973 82.6489 79.9898 82.5566 80.0017 82.4657C80.0136 82.3749 80.0447 82.2876 80.0928 82.2096C80.4989 81.8036 80.9568 81.432 81.3715 81.0692C81.7863 80.7063 82.0023 79.8682 81.6999 78.7796C81.0605 76.4727 80.4471 74.1658 79.8077 71.8676C79.684 71.2145 79.3905 70.6056 78.9567 70.1021C78.5229 69.5985 77.9642 69.2181 77.3367 68.9991C75.9433 68.6117 74.4642 68.666 73.1031 69.1546C72.576 69.3533 72.2995 69.8285 72.2909 70.6493C72.5155 72.2304 72.6624 73.7943 72.9648 75.4013C75.096 86.9904 80.2224 97.6464 88.344 107.369C88.556 107.692 88.8409 107.96 89.1756 108.152C89.5102 108.344 89.8854 108.455 90.2707 108.475C91.6153 108.443 92.9071 107.945 93.9255 107.067C94.6944 106.376 94.6167 105.149 93.7008 103.68Z" fill="#563283" fill-opacity="0.6"/>
<path d="M93.5971 91.9036C93.4164 89.4184 92.7314 86.9961 91.584 84.7842C90.7273 83.0563 89.6371 81.4545 88.344 80.0236C88.0071 79.6434 87.7219 79.5225 87.5491 79.8076C87.3763 80.0927 87.5491 80.4988 87.8775 80.8703L88.2144 81.2591C90.6025 84.0157 92.1075 87.4261 92.5344 91.0482C92.5302 91.3124 92.5563 91.5762 92.6122 91.8345C92.7207 92.1316 92.895 92.4004 93.1219 92.6207C93.3034 92.7503 93.5107 92.6207 93.6576 92.6207C93.6058 92.2665 93.6144 92.085 93.5971 91.9036Z" fill="#563283" fill-opacity="0.6"/>
<path d="M85.7693 84.8105C86.8543 86.0039 87.5136 87.5229 87.6442 89.1305C87.7011 89.3749 87.7912 89.6104 87.912 89.8303C88.4391 90.2623 88.6983 90.1155 88.6983 89.5711C88.5135 87.51 87.6611 85.5654 86.2704 84.0329C85.9421 83.6959 85.6743 83.5923 85.5188 83.8774C85.4628 84.0402 85.4568 84.216 85.5014 84.3822C85.5461 84.5485 85.6393 84.6976 85.7693 84.8105Z" fill="#563283" fill-opacity="0.6"/>
<g opacity="0.9">
<path d="M93.7008 103.68C92.3789 101.503 91.0483 99.36 89.7264 97.1655C89.5167 96.7498 89.2236 96.3818 88.8654 96.0845C88.5071 95.7872 88.0914 95.5669 87.6442 95.4375C87.0048 95.3079 86.3655 95.161 85.7088 94.9709C85.475 94.8734 85.2783 94.7039 85.1472 94.4871C82.9841 90.7849 81.2644 86.841 80.0237 82.7367C79.9973 82.6489 79.9898 82.5566 80.0017 82.4657C80.0136 82.3749 80.0447 82.2876 80.0928 82.2096C80.4989 81.8036 80.9568 81.432 81.3715 81.0692C81.7863 80.7063 82.0023 79.8682 81.6999 78.7796C81.0605 76.4727 80.4471 74.1658 79.8077 71.8676C79.684 71.2145 79.3905 70.6056 78.9567 70.1021C78.5229 69.5985 77.9642 69.2181 77.3367 68.9991C75.9433 68.6117 74.4642 68.666 73.1031 69.1546C72.576 69.3533 72.2995 69.8285 72.2909 70.6493C72.5155 72.2304 72.6624 73.7943 72.9648 75.4013C75.096 86.9904 80.2224 97.6464 88.344 107.369C88.556 107.692 88.8409 107.96 89.1756 108.152C89.5102 108.344 89.8854 108.455 90.2707 108.475C91.6153 108.443 92.9071 107.945 93.9255 107.067C94.6944 106.376 94.6167 105.149 93.7008 103.68Z" fill="white"/>
<path d="M93.5971 91.9036C93.4164 89.4184 92.7314 86.9961 91.584 84.7842C90.7273 83.0563 89.6371 81.4545 88.344 80.0236C88.0071 79.6434 87.7219 79.5225 87.5491 79.8076C87.3763 80.0927 87.5491 80.4988 87.8775 80.8703L88.2144 81.2591C90.6025 84.0157 92.1075 87.4261 92.5344 91.0482C92.5302 91.3124 92.5563 91.5762 92.6122 91.8345C92.7207 92.1316 92.895 92.4004 93.1219 92.6207C93.3034 92.7503 93.5107 92.6207 93.6576 92.6207C93.6058 92.2665 93.6144 92.085 93.5971 91.9036Z" fill="white"/>
<path d="M85.7693 84.8105C86.8543 86.0039 87.5136 87.5229 87.6442 89.1305C87.7011 89.3749 87.7912 89.6104 87.912 89.8303C88.4391 90.2623 88.6983 90.1155 88.6983 89.5711C88.5135 87.51 87.6611 85.5654 86.2704 84.0329C85.9421 83.6959 85.6743 83.5923 85.5188 83.8774C85.4628 84.0402 85.4568 84.216 85.5014 84.3822C85.5461 84.5485 85.6393 84.6976 85.7693 84.8105Z" fill="white"/>
</g>
<path d="M284.429 46.2066L292.525 50.8117V47.9432C292.525 47.7445 292.525 47.5371 292.525 47.3384C292.525 47.1397 292.525 46.9496 292.525 46.7595V46.6558C292.818 42.8629 295.695 41.4027 299.203 43.4331C300.791 44.4099 302.152 45.7149 303.195 47.2606C303.981 42.0766 308.189 40.245 313.278 43.1739C318.928 46.4398 323.508 54.4059 323.508 60.9032V67.0376C323.499 67.5283 323.621 68.0125 323.859 68.4417C324.097 68.8708 324.443 69.2298 324.864 69.4827L329.633 72.2734C330.663 72.8837 331.516 73.7507 332.11 74.7897C332.703 75.8286 333.017 77.0039 333.02 78.2005C333.02 78.6969 332.89 79.1846 332.641 79.6145C332.393 80.0444 332.036 80.4012 331.606 80.6491C331.176 80.897 330.688 81.0272 330.191 81.0266C329.695 81.026 329.207 80.8946 328.778 80.6456L284.55 55.0798C283.377 54.3984 282.402 53.4219 281.723 52.2472C281.044 51.0725 280.684 49.7406 280.679 48.3838C280.679 47.9447 280.794 47.5131 281.013 47.1324C281.232 46.7516 281.547 46.4352 281.927 46.2146C282.306 45.9941 282.737 45.8773 283.177 45.8759C283.616 45.8744 284.048 45.9885 284.429 46.2066Z" fill="#E6E6E6"/>
<path d="M346.144 45.0055L352.028 48.3837V46.2755C352.028 46.1287 352.028 45.9818 352.028 45.8349C352.028 45.688 352.028 45.5498 352.028 45.4115V45.3597C352.244 42.6035 354.335 41.5408 356.884 43.0183C358.038 43.7255 359.028 44.671 359.787 45.7917C360.366 42.0419 363.424 40.6855 367.122 42.8195C371.235 45.1955 374.561 50.9671 374.561 55.7104V60.1773C374.564 60.5275 374.658 60.8708 374.834 61.1737C375.01 61.4766 375.261 61.7287 375.564 61.9053L379.02 63.9357C379.772 64.3779 380.395 65.0095 380.827 65.7674C381.259 66.5254 381.485 67.3833 381.482 68.2557C381.481 68.613 381.388 68.964 381.21 69.2741C381.033 69.5842 380.777 69.8427 380.47 70.0241C380.162 70.2055 379.812 70.3036 379.455 70.3086C379.097 70.3136 378.745 70.2255 378.432 70.0528L346.231 51.4595C345.377 50.9659 344.669 50.2567 344.176 49.403C343.683 48.5492 343.423 47.581 343.423 46.5952C343.422 46.2762 343.505 45.9626 343.664 45.6857C343.822 45.4088 344.051 45.1784 344.326 45.0175C344.602 44.8566 344.915 44.7708 345.234 44.7687C345.553 44.7666 345.867 44.8482 346.144 45.0055Z" fill="#E6E6E6"/>
</svg>
