<svg width="64" height="64" viewBox="0 0 64 64" fill="none" xmlns="http://www.w3.org/2000/svg">
<path d="M31.89 2.55995C22.9428 2.61371 15.3451 9.36035 14.22 18.2499C13.9704 20.2263 14.0539 22.2257 14.475 24.2225L20.115 48.24C20.5272 49.9833 22.0643 51.2 23.855 51.2H26.88V60.16C26.88 60.8665 27.4534 61.44 28.16 61.44C28.8666 61.44 29.44 60.8665 29.44 60.16V51.2H34.56V60.16C34.56 60.8665 35.1334 61.44 35.84 61.44C36.5466 61.44 37.12 60.8665 37.12 60.16V51.2H40.2225C42.0107 51.2 43.5631 49.9645 43.965 48.2225L49.615 23.6975C49.6201 23.6757 49.6237 23.6567 49.6275 23.635C49.9565 21.7905 50.0049 20.1585 49.795 18.4599C49.3304 14.6942 47.7405 11.0976 45.16 8.31745C41.6912 4.57857 36.9959 2.54075 31.89 2.55995ZM30.72 7.74995V8.95995C30.72 9.66779 31.2922 10.2399 32 10.2399C32.7078 10.2399 33.28 9.66779 33.28 8.95995V7.74995C36.4493 8.07251 39.3162 9.57587 41.4 11.8299L40.2125 13.0174C39.712 13.5179 39.712 14.327 40.2125 14.8274C40.4621 15.077 40.7898 15.2024 41.1175 15.2024C41.4452 15.2024 41.7729 15.077 42.0225 14.8274L42.955 13.8949C43.8177 15.3183 44.4217 16.9183 44.67 18.6425C44.6815 18.7308 44.6923 18.8274 44.7 18.9375C44.7819 19.9781 44.4193 21.0231 43.7025 21.7975C42.9755 22.5859 41.9426 23.0399 40.87 23.0399H23.13C22.0394 23.0399 20.9971 22.5715 20.2675 21.7575C19.5417 20.9459 19.1935 19.8652 19.3125 18.79C19.3163 18.7579 19.3286 18.6644 19.335 18.6325C19.5756 16.9134 20.1773 15.3133 21.04 13.8899L21.975 14.8224C22.2246 15.072 22.5498 15.1974 22.8775 15.1974C23.2052 15.1974 23.5329 15.072 23.7825 14.8224C24.283 14.322 24.283 13.5154 23.7825 13.0149L22.5925 11.8224C24.6738 9.57477 27.5443 8.07123 30.72 7.74995ZM32 14.0799C31.2922 14.0799 30.72 14.6521 30.72 15.36V19.555C29.9584 19.9991 29.44 20.8166 29.44 21.76H34.56C34.56 20.8166 34.0416 19.9991 33.28 19.555V15.36C33.28 14.6521 32.7078 14.0799 32 14.0799ZM45.9575 28.165L43.7125 37.9075C42.0165 37.0499 40.86 35.2938 40.86 33.315C40.86 30.4925 43.1415 28.1982 45.9575 28.165ZM26.88 29.44C27.5878 29.44 28.16 30.0121 28.16 30.72V38.4C28.16 39.1078 27.5878 39.68 26.88 39.68C26.1722 39.68 25.6 39.1078 25.6 38.4V30.72C25.6 30.0121 26.1722 29.44 26.88 29.44Z" fill="#563283" fill-opacity="0.8"/>
</svg>
