<svg width="64" height="64" viewBox="0 0 64 64" fill="none" xmlns="http://www.w3.org/2000/svg">
<g clip-path="url(#clip0_30_170)">
<path d="M42.4534 24.5333H54.8268C56.9601 24.5333 58.6668 22.72 58.6668 20.3734C58.6668 18.3467 57.2801 16.64 55.4668 16.32C55.0401 11.7333 52.0534 9.59998 49.0668 9.59998C44.9068 9.59998 42.5601 12.48 41.8134 13.6533C39.36 13.9734 37.3334 16.32 37.3334 19.0933C37.3334 22.08 39.5734 24.5333 42.4534 24.5333Z" fill="#563283" fill-opacity="0.8"/>
<path d="M21.3334 3.2C23.68 3.2 25.6 5.12 25.6 7.46663C25.6 8.10663 26.0266 8.53325 26.6666 8.53325C27.3066 8.53325 27.7333 8.10663 27.7333 7.46663C27.7333 4.48 30.0799 2.13325 33.0666 2.13325C33.7066 2.13325 34.1333 1.70662 34.1333 1.06662C34.1333 0.426625 33.7066 0 33.0666 0C30.2933 0 27.84 1.49337 26.56 3.84C25.3866 2.13337 23.4666 1.06662 21.3334 1.06662C20.6934 1.06662 20.2668 1.49325 20.2668 2.13325C20.2668 2.77325 20.6934 3.2 21.3334 3.2Z" fill="#563283" fill-opacity="0.8"/>
<path d="M62.9334 61.8666H55.4668V58.6666H58.6668C59.3068 58.6666 59.7334 58.24 59.7334 57.6V55.68C59.7334 53.3334 57.8134 51.3066 55.4668 51.3066V49.1732H57.6C58.24 49.1732 58.6666 48.7466 58.6666 48.1066C58.6666 47.4666 58.24 47.04 57.6 47.04H55.4666V44.9066H57.6C58.24 44.9066 58.6666 44.48 58.6666 43.84C58.6666 43.2 58.24 42.7734 57.6 42.7734H55.4666V41.7067C55.4666 41.0667 55.04 40.6401 54.4 40.6401C53.76 40.6401 53.3334 41.0667 53.3334 41.7067V42.7734H40.5334V41.7067C40.5334 41.0667 40.1068 40.6401 39.4668 40.6401C38.8268 40.6401 38.4001 41.0667 38.4001 41.7067V42.7734H36.2668C35.6268 42.7734 35.2001 43.2 35.2001 43.84C35.2001 44.48 35.6268 44.9066 36.2668 44.9066H38.4V47.04H36.2666C35.6266 47.04 35.2 47.4666 35.2 48.1066C35.2 48.7466 35.6266 49.1732 36.2666 49.1732H38.4V51.3066C36.0534 51.4132 34.1334 53.3332 34.1334 55.68V57.6C34.1334 58.24 34.56 58.6666 35.2 58.6666H38.4V61.8666H16V51.2H27.7334C28.0534 51.2 28.3734 50.9866 28.5868 50.7734C28.8001 50.4534 28.8001 50.1333 28.8001 49.8133L16 10.3466C15.8934 9.91998 15.4666 9.59998 14.9334 9.59998C14.4001 9.59998 14.08 9.91998 13.8667 10.3466L1.06662 49.8133C1.06662 50.1333 1.06662 50.4534 1.28 50.7734C1.49337 50.9867 1.81337 51.2 2.13337 51.2H13.8667V61.8666H1.06662C0.426625 61.8666 0 62.2932 0 62.9332C0 63.5732 0.426625 64 1.06662 64H62.9333C63.5732 64 63.9999 63.5733 63.9999 62.9333C63.9999 62.2934 63.5734 61.8666 62.9334 61.8666ZM53.3334 61.8666H40.5334V58.6666H53.3334V61.8666ZM53.3334 51.2H40.5334V49.0666H53.3334V51.2ZM53.3334 46.9333H40.5334V44.8H53.3334V46.9333Z" fill="#563283" fill-opacity="0.8"/>
</g>
<defs>
<clipPath id="clip0_30_170">
<rect width="64" height="64" fill="white"/>
</clipPath>
</defs>
</svg>
