<svg width="64" height="64" viewBox="0 0 64 64" fill="none" xmlns="http://www.w3.org/2000/svg">
<path d="M53.3333 50.6667C54.0406 50.6667 54.7189 50.3858 55.219 49.8857C55.7191 49.3856 56 48.7073 56 48C56 47.2928 55.7191 46.6145 55.219 46.1144C54.7189 45.6143 54.0406 45.3334 53.3333 45.3334V42.6667C54.0406 42.6667 54.7189 42.3858 55.219 41.8857C55.7191 41.3856 56 40.7073 56 40C56 39.2928 55.7191 38.6145 55.219 38.1144C54.7189 37.6143 54.0406 37.3334 53.3333 37.3334V34.6667C53.3333 33.9595 53.0524 33.2812 52.5523 32.7811C52.0522 32.281 51.3739 32 50.6667 32C49.9594 32 49.2811 32.281 48.781 32.7811C48.2809 33.2812 48 33.9595 48 34.6667V37.3334H32V34.6667C32 33.9595 31.719 33.2812 31.219 32.7811C30.7189 32.281 30.0406 32 29.3333 32C28.6261 32 27.9478 32.281 27.4477 32.7811C26.9476 33.2812 26.6667 33.9595 26.6667 34.6667V37.3334C25.9594 37.3334 25.2811 37.6143 24.781 38.1144C24.281 38.6145 24 39.2928 24 40C24 40.7073 24.281 41.3856 24.781 41.8857C25.2811 42.3858 25.9594 42.6667 26.6667 42.6667V45.3334C25.9594 45.3334 25.2811 45.6143 24.781 46.1144C24.281 46.6145 24 47.2928 24 48C24 48.7073 24.281 49.3856 24.781 49.8857C25.2811 50.3858 25.9594 50.6667 26.6667 50.6667V53.3334H18.6667V32C18.6509 31.8803 18.6268 31.7618 18.5947 31.6454C20.8969 31.0718 22.9415 29.7457 24.4039 27.8774C25.8663 26.0092 26.6627 23.7059 26.6667 21.3334V16C26.6667 13.1711 25.5429 10.458 23.5425 8.45757C21.5421 6.45718 18.829 5.33337 16 5.33337C13.171 5.33337 10.4579 6.45718 8.45753 8.45757C6.45714 10.458 5.33334 13.1711 5.33334 16V21.3334C5.33726 23.7059 6.13366 26.0092 7.59609 27.8774C9.05851 29.7457 11.1031 31.0718 13.4053 31.6454C13.3732 31.7618 13.3491 31.8803 13.3333 32V53.3334H5.33334V58.6667H58.6667V53.3334H53.3333V50.6667ZM48 53.3334H32V50.6667H48V53.3334ZM48 45.3334H32V42.6667H48V45.3334Z" fill="#563283" fill-opacity="0.8"/>
</svg>
