<svg width="64" height="64" viewBox="0 0 64 64" fill="none" xmlns="http://www.w3.org/2000/svg">
<g clip-path="url(#clip0_30_179)">
<path d="M15.5714 4.57146C12.1263 4.7872 9.13611 7.9767 9.14286 11.4286C9.14417 15.0182 12.4104 18.2832 16 18.2832C19.5896 18.2832 22.8558 15.0182 22.8571 11.4286C22.8645 7.6908 19.3019 4.33784 15.5714 4.57146ZM52.1429 18.2857C48.6977 18.5015 45.7075 21.691 45.7143 25.1429C45.7156 28.7324 48.9819 31.9975 52.5714 31.9975C56.161 31.9975 59.4273 28.7324 59.4286 25.1429C59.4359 21.4051 55.8734 18.0521 52.1429 18.2857ZM13.7143 20.5715C6.98976 20.5715 5.18475 29.1356 4.71429 33.7143L0 32V36.5715L27.2857 46.2857L22.8571 64H41.1429L36.8571 49.7143L64 59.4286V54.8572L59.7143 53.2857C60.4643 49.3482 62.8571 34.2857 54.8571 34.2857C47.367 34.2857 46.1019 44.5463 45.8571 48.4286L18.7143 38.7143C19.5886 33.543 21.0926 20.5715 13.7143 20.5715Z" fill="#563283" fill-opacity="0.8"/>
</g>
<defs>
<clipPath id="clip0_30_179">
<rect width="64" height="64" fill="white"/>
</clipPath>
</defs>
</svg>
