<svg width="64" height="64" viewBox="0 0 64 64" fill="none" xmlns="http://www.w3.org/2000/svg">
<path d="M33.689 34.5852L30.3515 26.5815C29.857 25.4072 28.7138 24.573 27.354 24.573H10.1415C8.78175 24.573 7.6385 25.4072 7.144 26.5815L3.77575 34.5852C1.8905 35.1107 0.5 36.8102 0.5 38.8807V48.275H3.40475V51.149C3.40475 52.756 4.70275 54.023 6.27875 54.023C7.85475 54.023 9.15275 52.756 9.15275 51.149V48.275H28.2812V51.149C28.2812 52.756 29.5483 54.023 31.1553 54.023C32.7313 54.023 34.0293 52.756 34.0293 51.149V48.275H36.965V38.8807C36.9647 36.8102 35.5742 35.1107 33.689 34.5852ZM9.5545 27.5087C9.678 27.169 10.018 26.9217 10.3888 26.9217H27.076C27.4778 26.9217 27.8177 27.169 27.9412 27.5087L30.8153 34.431H6.6805L9.5545 27.5087ZM6.46425 43.1142C4.85725 43.1142 3.5595 41.8165 3.5595 40.2095C3.5595 38.6025 4.8575 37.3047 6.46425 37.3047C8.07125 37.3047 9.369 38.6027 9.369 40.2095C9.369 41.8165 8.071 43.1142 6.46425 43.1142ZM30.8153 43.1142C29.2083 43.1142 27.9105 41.8165 27.9105 40.2095C27.9105 38.6025 29.2085 37.3047 30.8153 37.3047C32.422 37.3047 33.72 38.6027 33.72 40.2095C33.72 41.8165 32.422 43.1142 30.8153 43.1142ZM63.5 55.9247L44.6355 48.0712C42.113 46.7587 40.3698 44.0927 40.3698 41.0575V29.2245C40.3698 28.0145 41.4158 27.0302 42.6258 27.0302C43.8358 27.0302 44.8817 28.0147 44.8817 29.2245V35.3975C44.8817 35.8692 45.2305 36.2587 45.702 36.2587C46.1737 36.2587 46.5223 35.8692 46.5223 35.3975V16.5095C46.5223 15.2995 47.5682 14.3152 48.778 14.3152C49.9878 14.3152 51.034 15.2997 51.034 16.5095V29.6962C51.034 30.168 51.3828 30.5577 51.8543 30.5577C52.326 30.5577 52.6745 30.168 52.6745 29.6962V16.5095C52.6745 15.4432 52.3258 14.4587 51.5875 13.7205C51.4235 13.5155 51.0337 13.3717 51.0337 13.2077V11.6695C51.0337 10.4595 51.9772 9.47522 53.187 9.47522C54.397 9.47522 55.3402 10.4597 55.3402 11.6695V29.6755C55.3402 30.1472 55.689 30.537 56.1605 30.537C56.632 30.537 56.9808 30.1472 56.9808 29.6755V13.023C57.1858 12.982 57.2677 12.982 57.432 12.982C58.642 12.982 59.647 13.9665 59.647 15.1762V39.5807C59.647 40.6062 60.2827 41.5085 61.144 41.9392L63.4995 42.929V55.9247H63.5Z" fill="#563283" fill-opacity="0.8"/>
</svg>
