<svg width="64" height="64" viewBox="0 0 64 64" fill="none" xmlns="http://www.w3.org/2000/svg">
<g clip-path="url(#clip0_30_184)">
<path d="M60.8809 42.8513H60.8726V29.7529C60.1073 30.0237 59.2933 30.2004 58.4366 30.2004C57.804 30.2004 57.1985 30.0945 56.6118 29.9446V42.8513H51.4377V34.6461C51.4377 33.8724 50.8096 33.2441 50.0358 33.2441H45.2965C44.5223 33.2441 43.8945 33.8724 43.8945 34.6461V42.8513H37.5903V41.5368C37.5903 40.7628 36.962 40.1348 36.1883 40.1348H30.8267C30.0529 40.1348 29.4247 40.7628 29.4247 41.5368V42.8513H21.3486V39.1733C21.3486 38.399 20.7203 37.7707 19.9461 37.7707H11.9573C11.1831 37.7707 10.5553 38.399 10.5553 39.1733V42.8513H7.43018V29.8509C6.75206 30.0569 6.04462 30.2023 5.2997 30.2023C4.5553 30.2023 3.84786 30.057 3.16974 29.8509V42.8513H3.16106C1.44053 42.8513 0.0447159 44.2499 0.0447159 45.9704V60.8395C0.0447159 62.56 1.44053 63.9555 3.16106 63.9555H60.8812C62.6039 63.9555 63.9996 62.56 63.9996 60.8395V45.9704C63.9993 44.2499 62.6035 42.8513 60.8809 42.8513Z" fill="#563283" fill-opacity="0.8"/>
<path d="M14.3376 14.4993C13.7816 14.4993 13.3307 14.9488 13.3307 15.5042V22.8169C13.3307 25.7171 15.6837 28.0699 18.5858 28.0699C21.4859 28.0699 23.8388 25.7169 23.8388 22.8169V15.5042C23.8388 14.9488 23.3871 14.4993 22.8319 14.4993H14.3376Z" fill="#563283" fill-opacity="0.8"/>
<path d="M27.619 14.4993C27.0636 14.4993 26.6121 14.9488 26.6121 15.5042V22.8169C26.6121 25.7171 28.9651 28.0699 31.8672 28.0699C34.7674 28.0699 37.1204 25.7169 37.1204 22.8169V15.5042C37.1204 14.9488 36.6686 14.4993 36.1135 14.4993H27.619Z" fill="#563283" fill-opacity="0.8"/>
<path d="M40.9023 14.4993C40.3469 14.4993 39.8956 14.9488 39.8956 15.5042V22.8169C39.8956 25.7171 42.2487 28.072 45.1507 28.072C48.0532 28.072 50.4063 25.7171 50.4063 22.8169V15.5042C50.4063 14.9488 49.9545 14.4993 49.3995 14.4993H40.9023Z" fill="#563283" fill-opacity="0.8"/>
<path d="M1.00559 11.8612H62.9943C63.4274 11.8612 63.8123 11.5827 63.9495 11.1707C64.0844 10.7586 63.9433 10.305 63.594 10.0471L50.4205 0.244343C50.246 0.115454 50.0357 0.0444336 49.8196 0.0444336H14.1832C13.9668 0.0444336 13.7568 0.115322 13.5821 0.244343L0.406523 10.0471C0.0566824 10.305 -0.0845692 10.7586 0.050501 11.1707C0.188465 11.5827 0.573027 11.8612 1.00559 11.8612Z" fill="#563283" fill-opacity="0.8"/>
<path d="M5.29943 28.0719C8.20154 28.0719 10.5551 25.7169 10.5551 22.8168V15.5041C10.5551 14.9487 10.1034 14.4991 9.54816 14.4991H1.05163C0.496221 14.4991 0.0447159 14.9487 0.0447159 15.5041V22.8168C0.0443214 25.7169 2.39746 28.0719 5.29943 28.0719Z" fill="#563283" fill-opacity="0.8"/>
<path d="M62.6826 14.4993H54.1883C53.6323 14.4993 53.1815 14.9488 53.1815 15.5042V22.8169C53.1815 25.7171 55.5346 28.0699 58.4366 28.0699C61.3367 28.0699 63.6895 25.7169 63.6895 22.8169V15.5042C63.6896 14.9488 63.238 14.4993 62.6826 14.4993Z" fill="#563283" fill-opacity="0.8"/>
</g>
<defs>
<clipPath id="clip0_30_184">
<rect width="64" height="64" fill="white"/>
</clipPath>
</defs>
</svg>
