<svg width="91" height="90" viewBox="0 0 91 90" fill="none" xmlns="http://www.w3.org/2000/svg">
<path fill-rule="evenodd" clip-rule="evenodd" d="M9.41595 30.9745C9.27442 31.8235 9.16842 32.6031 9.08891 33.296C8.43799 33.4958 7.73655 33.7622 7.02385 34.1186C5.51861 34.8712 3.88915 36.0642 2.64513 37.9305C1.38407 39.8219 0.683289 42.1604 0.683289 44.9167C0.683289 47.6729 1.38407 50.0114 2.64513 51.9028C3.88915 53.7689 5.51861 54.9621 7.02385 55.7146C7.73655 56.0711 8.43799 56.3373 9.08891 56.5374C9.16837 57.2304 9.27442 58.0099 9.41595 58.8588C9.97091 62.1888 11.0885 66.691 13.3644 71.2427C15.6483 75.8104 19.1382 80.5025 24.4495 84.0436C29.7864 87.6014 36.7188 89.8333 45.6 89.8333C54.4812 89.8333 61.4135 87.6014 66.7504 84.0436C72.0616 80.5025 75.5516 75.8104 77.8354 71.2427C80.1115 66.691 81.2291 62.1888 81.784 58.8588C81.9253 58.0099 82.0315 57.2304 82.1111 56.5374C82.762 56.3373 83.4635 56.0711 84.176 55.7146C85.6811 54.9621 87.3108 53.7689 88.555 51.9028C89.8159 50.0114 90.5166 47.6729 90.5166 44.9167C90.5166 42.1604 89.8159 39.8219 88.555 37.9305C87.3108 36.0642 85.6811 34.8712 84.176 34.1186C83.4635 33.7622 82.762 33.4958 82.1111 33.296C82.0315 32.6031 81.9253 31.8235 81.784 30.9745C81.2291 27.6446 80.1115 23.1423 77.8354 18.5905C75.5516 14.0228 72.0616 9.33087 66.7504 5.78996C61.4135 2.23203 54.4812 0 45.6 0C36.7188 0 29.7864 2.23203 24.4495 5.78996C19.1382 9.33087 15.6483 14.0228 13.3644 18.5906C11.0885 23.1423 9.97091 27.6446 9.41595 30.9745ZM73.7852 57.1667H17.4149C17.8594 59.9923 18.7849 63.8225 20.6689 67.5906C22.4683 71.1897 25.1034 74.6642 28.9796 77.2481C32.8301 79.8153 38.1479 81.6667 45.6 81.6667C53.052 81.6667 58.3698 79.8153 62.2203 77.2481C66.0967 74.6642 68.7316 71.1897 70.5312 67.5906C72.4148 63.8225 73.3405 59.9923 73.7852 57.1667ZM73.7852 32.6667H70.1C67.8447 32.6667 66.0166 34.4948 66.0166 36.75C66.0166 39.0052 67.8447 40.8333 70.1 40.8333H78.2666C79.5259 40.8823 81.0266 41.3605 81.7595 42.4601C82.0298 42.8656 82.35 43.5896 82.35 44.9167C82.35 46.2438 82.0298 46.9677 81.7595 47.3732C81.0266 48.4728 79.5259 48.951 78.2666 49H12.9333C11.6738 48.951 10.1735 48.4728 9.4402 47.3732C9.17001 46.9677 8.84996 46.2438 8.84996 44.9167C8.84996 43.5896 9.17001 42.8656 9.4402 42.4601C10.1735 41.3605 11.6738 40.8823 12.9333 40.8333H21.1C23.3551 40.8333 25.1833 39.0052 25.1833 36.75C25.1833 34.4948 23.3551 32.6667 21.1 32.6667H17.4149C17.8594 29.8412 18.785 26.0107 20.6689 22.2428C22.4684 18.6438 25.1034 15.1691 28.9796 12.585C30.2647 11.7283 31.7132 10.9513 33.35 10.2962V20.4167C33.35 22.6718 35.1781 24.5 37.4333 24.5C39.6885 24.5 41.5166 22.6718 41.5166 20.4167V8.36561C42.8012 8.23572 44.161 8.16667 45.6 8.16667C47.0389 8.16667 48.3987 8.23572 49.6833 8.36561V20.4167C49.6833 22.6718 51.5114 24.5 53.7666 24.5C56.0219 24.5 57.85 22.6718 57.85 20.4167V10.2962C59.4866 10.9513 60.9353 11.7283 62.2203 12.585C66.0967 15.1691 68.7316 18.6438 70.5312 22.2428C72.4148 26.0107 73.3405 29.8412 73.7852 32.6667Z" fill="#ECECEC"/>
</svg>
