<svg width="98" height="98" viewBox="0 0 98 98" fill="none" xmlns="http://www.w3.org/2000/svg">
<path d="M96.9174 48.753L56.8408 1.28239C55.3972 -0.427462 53.057 -0.427462 51.6135 1.28239C50.1702 2.99223 50.1702 5.76424 51.6135 7.47409L52.4848 8.50619L47.2573 14.6979L42.0305 8.50648L42.9016 7.47438C44.3451 5.76483 44.3451 2.99253 42.9016 1.28268C41.4583 -0.42717 39.118 -0.42717 37.6743 1.28268L1.08246 44.6249C-0.36082 46.3345 -0.36082 49.1068 1.08246 50.8166C1.80447 51.6715 2.75023 52.0991 3.69623 52.0991C4.24106 52.0991 4.78442 51.9526 5.28662 51.6686L41.1579 94.1582C41.1581 94.1588 41.1586 94.1594 41.1591 94.16C43.321 96.7204 46.1607 98 49.0002 98C51.8394 98 54.6792 96.7195 56.8403 94.1594C58.7904 91.85 59.9237 88.8311 60.0711 85.5944C62.7016 85.4222 65.29 84.1508 67.2949 81.776C69.3017 79.3989 70.3753 76.3298 70.5192 73.2113C73.1517 73.0408 75.7431 71.7688 77.7502 69.3926C77.7541 69.3879 77.7576 69.383 77.7618 69.3783L90.818 53.9126L91.6896 54.945C92.4111 55.7999 93.3574 56.2275 94.3029 56.2275C95.2492 56.2275 96.1949 55.8002 96.9167 54.945C98.3609 53.2349 98.3609 50.4626 96.9174 48.753ZM62.0678 75.5843C60.6277 77.2906 58.2835 77.2912 56.842 75.5852C56.8415 75.5849 56.841 75.584 56.841 75.584L51.6132 69.392C50.1694 67.6825 47.8294 67.6825 46.3857 69.3923C44.9424 71.1021 44.9424 73.8742 46.3859 75.584L51.6112 81.7731C51.612 81.7743 51.6127 81.7751 51.6135 81.776C51.6142 81.7769 51.6152 81.7777 51.6162 81.7789C52.3126 82.6055 52.6965 83.7036 52.6965 84.8717C52.6965 86.041 52.3116 87.1405 51.6132 87.968C50.1722 89.6749 47.8275 89.6746 46.3859 87.9674L10.6664 45.657L36.8032 14.6982L42.03 20.8896L34.1894 30.177C34.1884 30.1779 34.1879 30.179 34.1869 30.1799C29.8662 35.3013 29.8667 43.6319 34.1894 48.7524C36.3507 51.3131 39.1905 52.5933 42.03 52.5933C44.8682 52.593 47.7065 51.3143 49.8678 48.7562C49.8691 48.755 49.8703 48.7542 49.8713 48.753L57.7123 39.4653L72.5231 57.0086C72.5236 57.0092 72.5246 57.0101 72.5251 57.0106C73.963 58.7158 73.9637 61.4872 72.5281 63.1942L72.5234 63.2C72.5226 63.2009 72.5219 63.2021 72.5212 63.2029C71.0798 64.9064 68.7381 64.9061 67.2976 63.2023C67.2966 63.2012 67.2956 63.1997 67.2946 63.1986L62.0683 57.0086C60.625 55.2988 58.2845 55.299 56.841 57.0089C55.3975 58.7187 55.3975 61.4907 56.8413 63.2006L62.0639 69.3862C62.0656 69.3882 62.0668 69.3903 62.0683 69.3923C63.5094 71.0992 63.5094 73.8771 62.0678 75.5843ZM79.9145 54.445C79.3864 53.1321 78.6664 51.9018 77.7502 50.8166C77.7492 50.8157 77.7482 50.8149 77.7475 50.814L60.3261 30.1779C58.8828 28.468 56.5423 28.4683 55.0988 30.1779L44.6437 42.5616L44.6432 42.5622C43.2014 44.2688 40.857 44.2682 39.4164 42.5619C37.9754 40.8547 37.9754 38.0771 39.416 36.3702L39.4167 36.3696L49.8705 23.9868L49.871 23.9862L49.8713 23.9856L57.7116 14.6982L85.5912 47.7206L79.9145 54.445Z" fill="#ECECEC"/>
</svg>
